<svg width="17" height="20" viewBox="0 0 17 20" fill="none" xmlns="http://www.w3.org/2000/svg">
<path d="M11.7128 14.8202C11.0739 14.5813 10.8922 14.2091 10.8922 13.7278C10.8922 13.4089 10.8922 13.0109 10.8922 12.4647C10.9867 12.2691 11.3705 11.3379 11.5753 10.177C12.0533 10.0063 12.3266 9.73337 12.6677 8.53841C12.8574 7.87399 12.6997 7.56989 12.5059 7.42942C12.5548 7.36305 12.5966 7.29282 12.6256 7.21606C13.0352 6.12364 13.4928 1.12637 9.60065 0.867038C8.49788 -0.171126 7.2653 -0.30093 5.7085 0.607429C4.1517 1.51579 3.78596 3.20212 3.6328 4.36977C3.47245 5.58989 3.8853 7.4893 3.8853 7.4893L3.92323 7.49462C3.76881 7.65762 3.6719 7.96227 3.83639 8.53841C4.17748 9.73333 4.45045 10.0063 4.9285 10.177C5.1333 11.3379 5.5242 12.1324 5.61162 12.4647C5.61162 13.0109 5.61162 13.4089 5.61162 13.7278C5.61162 14.2091 5.37245 14.6154 4.79127 14.8202C3.67334 15.2144 -0.286696 16.3696 0.0165075 20H16.5056C16.8088 16.3696 12.823 15.2357 11.7128 14.8202Z" fill="#4285F4"/>
</svg>
