<svg width="32" height="32" viewBox="0 0 32 32" fill="none" xmlns="http://www.w3.org/2000/svg">
<path d="M25.6458 9.56529C25.566 9.48447 25.4763 9.41048 25.3778 9.34485L25.2769 9.32379C25.224 9.30079 25.1819 9.26304 25.1544 9.21741C24.9967 9.14297 24.8315 9.09497 24.6635 9.07097C24.5185 9.05085 24.4166 8.91616 24.4377 8.7701C24.4572 8.6241 24.5929 8.52222 24.738 8.54229C24.9041 8.56679 25.0706 8.60897 25.2303 8.67166C25.2563 8.55504 25.271 8.43597 25.271 8.31597C25.2705 8.05335 25.2088 7.78829 25.0775 7.53891C24.9275 7.25379 24.7076 7.03135 24.4503 6.87954C24.225 6.74629 23.9702 6.66691 23.7086 6.64829C23.6895 6.88685 23.6327 7.12447 23.5337 7.35472C23.4749 7.48991 23.3187 7.55216 23.183 7.49385C23.0477 7.43604 22.985 7.27929 23.0433 7.14404C23.1383 6.92216 23.183 6.69385 23.184 6.46747L23.1805 6.37097C23.1624 6.05741 23.0585 5.75466 22.8817 5.49647C22.7048 5.23872 22.4569 5.0276 22.1483 4.89385C21.9268 4.79929 21.6975 4.75472 21.4717 4.75472C21.039 4.75472 20.6202 4.92135 20.3037 5.21522C20.363 5.4166 20.3968 5.62872 20.3968 5.84922C20.3968 5.99622 20.2763 6.11572 20.1293 6.11572C19.9823 6.11572 19.8623 5.99622 19.8623 5.84922C19.8623 5.63316 19.8226 5.42835 19.7501 5.23779H19.7506C19.6276 4.91691 19.4101 4.6406 19.1313 4.4456C18.8535 4.25066 18.517 4.13647 18.1505 4.13647C17.8326 4.13647 17.5362 4.22322 17.2814 4.3731C17.0776 4.4936 16.9017 4.65629 16.7636 4.84735C17.0335 5.21722 17.1932 5.67435 17.1932 6.16722C17.1932 6.31416 17.0732 6.43322 16.9257 6.43322C16.7787 6.43322 16.6587 6.31416 16.6587 6.16722C16.6587 5.73416 16.4995 5.34022 16.2345 5.03891C15.92 4.67979 15.4609 4.45497 14.9465 4.45497C14.5893 4.45497 14.2606 4.56322 13.9857 4.74941C13.7118 4.9356 13.4938 5.19916 13.365 5.50879C13.2817 5.7111 13.2342 5.93404 13.2342 6.16722C13.2342 6.31416 13.1151 6.43322 12.9677 6.43322C12.8202 6.43322 12.7012 6.31416 12.7012 6.16722C12.7012 5.95066 12.7325 5.74197 12.7893 5.54304C12.5885 5.46172 12.371 5.41666 12.1476 5.41666C12.0207 5.41666 11.8933 5.43135 11.764 5.46029C11.3838 5.54797 11.0658 5.75279 10.8331 6.03004C10.6655 6.22997 10.546 6.46754 10.4838 6.72279C11.035 6.73254 11.5856 6.94566 12.0109 7.3621C12.1158 7.46547 12.1177 7.63404 12.0148 7.73885C11.9115 7.84466 11.7429 7.84566 11.6376 7.74322C11.3035 7.41747 10.8728 7.25429 10.4397 7.25379C10.3623 7.25379 10.2849 7.25916 10.2075 7.26897H10.2065H10.206C9.84303 7.31941 9.49322 7.48497 9.21541 7.76822C8.88909 8.10135 8.72741 8.53154 8.72697 8.9656C8.72697 9.21304 8.78084 9.46235 8.88859 9.69166C8.97234 9.87241 9.08997 10.041 9.24184 10.1889V10.1893C9.41334 10.3579 9.61128 10.4823 9.82247 10.5637C9.95909 10.6171 10.0282 10.7714 9.97434 10.9085C9.92097 11.0467 9.76709 11.1153 9.62947 11.0614C9.35366 10.9546 9.09303 10.791 8.86759 10.57C8.76916 10.473 8.68141 10.3697 8.60359 10.26C8.40222 10.5485 8.29297 10.8938 8.29297 11.2457C8.29297 11.5181 8.35816 11.7929 8.49578 12.0511C8.65059 12.3402 8.87453 12.5655 9.13809 12.7193C9.34628 12.8413 9.57903 12.9183 9.81909 12.9452L9.81859 12.929C9.81859 12.7879 9.83184 12.6498 9.85584 12.5155C9.88328 12.3705 10.0229 12.2759 10.167 12.3019C10.312 12.3288 10.4075 12.468 10.3815 12.613C10.3624 12.7153 10.3522 12.8217 10.3522 12.929L10.3565 13.053L10.3707 13.1779V13.1793L10.3712 13.1818C10.4937 14.0186 11.2168 14.6442 12.0634 14.6442L12.1864 14.6393H12.1869C12.5622 14.6124 12.8992 14.4673 13.1667 14.2415C13.3543 14.0832 13.5082 13.8849 13.6135 13.6614C13.6757 13.5276 13.8359 13.4709 13.9687 13.534C14.102 13.5967 14.1588 13.7554 14.0961 13.8887C13.982 14.1293 13.8262 14.3463 13.639 14.531C13.7438 14.8534 13.9408 15.1302 14.198 15.3359C14.492 15.5716 14.8628 15.7107 15.2636 15.7107L15.3871 15.7059H15.3876C15.6413 15.6877 15.876 15.6147 16.0843 15.501C16.0519 15.3477 16.0333 15.191 16.0333 15.0322C16.0333 14.7049 16.1063 14.3713 16.2572 14.0577C16.3214 13.925 16.4806 13.8696 16.6129 13.9338C16.7457 13.997 16.802 14.1567 16.7378 14.2895C16.6217 14.53 16.5673 14.7828 16.5673 15.0322C16.5673 15.2066 16.5943 15.3805 16.6462 15.5456H16.6467C16.7834 15.9812 17.0921 16.3618 17.5364 16.5754C17.7765 16.6915 18.0293 16.7459 18.2782 16.7459C18.6735 16.7459 19.0601 16.6077 19.3668 16.3574L19.3678 16.3569C19.554 16.2035 19.7098 16.0095 19.8219 15.7778L19.8224 15.7768C19.9268 15.5603 19.9817 15.3335 19.9909 15.1071C19.9978 14.9601 20.1217 14.8455 20.2697 14.8524C20.4167 14.8587 20.5303 14.9831 20.5239 15.1301C20.5112 15.427 20.4392 15.7268 20.3025 16.0095V16.009C20.1927 16.2378 20.0482 16.4392 19.8787 16.6111C20.1932 17.0628 20.7165 17.3475 21.2823 17.347C21.3872 17.347 21.494 17.3372 21.6013 17.3166C22.0133 17.2392 22.3607 17.0212 22.6076 16.7213C22.854 16.421 22.9976 16.0394 22.9976 15.6366L22.9971 15.6004V15.5984C22.9952 15.5078 22.9858 15.4128 22.9682 15.3172C22.9256 15.0903 22.8388 14.8845 22.7198 14.7028C22.5474 14.5509 22.3558 14.3525 22.1751 14.132C21.9825 13.8969 21.8052 13.6397 21.6862 13.3805C21.6078 13.2071 21.5519 13.0317 21.5509 12.847C21.5509 12.7652 21.5622 12.6805 21.593 12.5992C21.6229 12.5164 21.6719 12.438 21.7375 12.3733C21.8414 12.2699 22.0099 12.2699 22.1143 12.3733C22.2182 12.4781 22.2182 12.6476 22.1143 12.751L22.0942 12.7829L22.0839 12.8471C22.0829 12.9142 22.1108 13.0279 22.1711 13.1587C22.2308 13.289 22.3195 13.4355 22.4239 13.58C22.6307 13.8695 22.8987 14.1537 23.1005 14.3271L23.1279 14.3507L23.148 14.3805C23.3132 14.6265 23.4342 14.9097 23.4924 15.2188V15.2193L23.5115 15.3515L23.5914 15.355C23.9295 15.3545 24.2699 15.2545 24.5693 15.0443C24.8074 14.8768 24.9887 14.6617 25.1112 14.4202C25.2341 14.1782 25.2983 13.9107 25.2983 13.6412C25.2983 13.3889 25.2414 13.1356 25.1278 12.9C25.0224 12.9338 24.9156 12.9607 24.8073 12.9793C24.6623 13.0053 24.5247 12.9068 24.4987 12.7619C24.4742 12.6164 24.5722 12.4792 24.7172 12.4537C25.1895 12.3724 25.6221 12.097 25.8896 11.6551C26.0591 11.3773 26.139 11.0716 26.139 10.7693C26.139 10.324 25.967 9.88847 25.6466 9.5656L25.6458 9.56529ZM13.4238 7.53016C13.6786 7.22885 14.0167 7.01472 14.3802 6.8746C14.7452 6.73447 15.1361 6.66735 15.5114 6.66735C15.8764 6.66785 16.2272 6.7296 16.525 6.86779C16.6583 6.92847 16.7166 7.08772 16.6548 7.22147C16.5936 7.35479 16.4353 7.41354 16.3007 7.35185C16.0949 7.25535 15.8132 7.19997 15.5114 7.19997C15.2008 7.19997 14.8697 7.25722 14.5722 7.37291C14.2748 7.48704 14.0137 7.65754 13.83 7.8741C13.7359 7.98679 13.5669 8.00147 13.4542 7.90547C13.342 7.81041 13.3278 7.64235 13.4238 7.53016ZM19.4949 13.8373C19.1848 13.8373 18.9035 13.8021 18.6468 13.7428C18.6537 13.8163 18.6586 13.8981 18.6586 13.9848C18.6586 14.1588 18.6395 14.3576 18.5851 14.5663C18.5302 14.7745 18.4377 14.9935 18.2917 15.2037C18.2079 15.3252 18.0418 15.3551 17.9208 15.2713C17.7993 15.1875 17.7699 15.0219 17.8527 14.8999C17.9604 14.7446 18.0275 14.5858 18.0687 14.4296C18.1099 14.2733 18.1251 14.1214 18.1251 13.9848C18.1256 13.7962 18.0967 13.6408 18.0761 13.5522C17.9458 13.4933 17.8257 13.4272 17.7136 13.3532C17.2668 13.0642 16.968 12.6825 16.7803 12.3195C16.6544 12.076 16.5779 11.8408 16.5368 11.6365C16.5133 11.5199 16.5015 11.4142 16.5015 11.318C16.5015 11.1701 16.6211 11.0505 16.7685 11.0505C16.916 11.0505 17.0355 11.1701 17.0355 11.318C17.035 11.3954 17.0517 11.5253 17.0938 11.6728C17.136 11.8207 17.2031 11.9888 17.3001 12.1578C17.4946 12.4978 17.8037 12.8383 18.2809 13.0593C18.5998 13.2072 18.9967 13.3032 19.4949 13.3032C19.6423 13.3032 19.7619 13.4228 19.7619 13.5702C19.7619 13.7178 19.6424 13.8373 19.4949 13.8373ZM21.3733 11.8894C21.3184 12.0257 21.1631 12.0923 21.0259 12.0378C20.8892 11.983 20.8236 11.8287 20.8775 11.692V11.6915L20.879 11.6875L20.8868 11.664L20.9143 11.568C20.9344 11.4838 20.955 11.3647 20.955 11.2339L20.9545 11.2153C20.588 11.3397 20.248 11.3955 19.935 11.3955C19.4617 11.3965 19.0522 11.2667 18.719 11.0698C18.3853 10.8729 18.1257 10.6122 17.9317 10.3472C17.7112 10.0468 17.4222 9.77741 17.091 9.58685C16.7588 9.39572 16.3875 9.2821 15.9931 9.2811C15.6477 9.2821 15.2803 9.36829 14.8967 9.57897C14.5327 9.77885 14.2985 10.0448 14.1471 10.3368C13.9967 10.6293 13.933 10.9487 13.9335 11.2398C13.9325 11.5092 13.9893 11.7532 14.0633 11.907C14.1265 12.0403 14.0692 12.199 13.9364 12.2622C13.8037 12.3255 13.6444 12.2681 13.5812 12.1353C13.4651 11.8893 13.4005 11.5797 13.3995 11.2398C13.4 10.9017 13.4671 10.5323 13.6322 10.1791C13.3011 10.2541 12.9934 10.2874 12.7132 10.2874C12.5618 10.2874 12.4192 10.2776 12.2835 10.26L12.234 10.3599L12.2335 10.3608L12.2295 10.3648L12.2153 10.383L12.1585 10.4603C12.11 10.53 12.0428 10.6314 11.9698 10.7607C11.8243 11.0169 11.6578 11.3785 11.5769 11.7845C11.548 11.9291 11.4079 12.0237 11.2633 11.9942C11.1188 11.9654 11.0247 11.8252 11.0547 11.6797C11.1507 11.1981 11.3403 10.7885 11.5054 10.497C11.5916 10.3462 11.6705 10.2267 11.7283 10.1453C11.5108 10.0802 11.3227 10.0003 11.1688 9.91891C10.8176 9.73222 10.6348 9.5451 10.6192 9.52991C10.5172 9.4236 10.5202 9.25504 10.626 9.15266C10.7323 9.05079 10.9003 9.05372 11.0027 9.15854L11.0057 9.16147L11.0213 9.17666L11.0978 9.24079C11.1673 9.29566 11.2747 9.37116 11.4182 9.44754C11.7062 9.59941 12.1364 9.75329 12.713 9.75429C13.1182 9.75429 13.5958 9.67691 14.1509 9.46329C14.2915 9.33247 14.4537 9.21297 14.6398 9.11104C15.0965 8.86072 15.5565 8.74804 15.993 8.74804C16.4917 8.74804 16.9557 8.8931 17.3574 9.12429C17.7592 9.35654 18.0997 9.67447 18.3617 10.0321C18.521 10.2481 18.7302 10.4574 18.9893 10.6097C19.25 10.7625 19.5581 10.862 19.9348 10.8625C20.193 10.8625 20.484 10.8145 20.8133 10.6988C20.733 10.57 20.6134 10.4455 20.4165 10.3328C20.2881 10.2598 20.2425 10.0972 20.315 9.96935C20.388 9.84047 20.5502 9.79635 20.6785 9.86791C20.994 10.0458 21.2052 10.2814 21.3277 10.5278C21.4516 10.7733 21.4883 11.0222 21.4883 11.2339C21.4869 11.6034 21.3806 11.8703 21.3733 11.8894ZM21.2733 8.62122C20.6502 8.62122 20.1049 8.45316 19.664 8.19891C19.6018 8.28516 19.5185 8.39341 19.4112 8.51097C19.1697 8.77604 18.8149 9.08716 18.3402 9.2576C18.2006 9.3066 18.0487 9.2351 17.9992 9.09597C17.9497 8.95679 18.0227 8.80447 18.1604 8.75547C18.5107 8.63054 18.8037 8.3851 19.0065 8.16316C19.1006 8.06172 19.1736 7.96572 19.2265 7.89222C18.9634 7.66985 18.7557 7.41654 18.6132 7.15591C18.478 6.90604 18.3995 6.64835 18.3986 6.39797C18.3986 6.25104 18.5182 6.13147 18.6656 6.13147C18.8126 6.13147 18.9321 6.25104 18.9321 6.39797C18.9311 6.53272 18.9782 6.71254 19.082 6.90116C19.1843 7.09022 19.3402 7.28716 19.544 7.4636C19.9516 7.81685 20.54 8.08722 21.2734 8.08722C21.4208 8.08722 21.5399 8.20729 21.5399 8.35472C21.5398 8.50166 21.4208 8.62122 21.2733 8.62122ZM23.376 12.3774C23.2825 12.4901 23.1139 12.5067 23.0003 12.4122C22.8867 12.3186 22.871 12.1501 22.964 12.0369C23.255 11.6837 23.3623 11.328 23.3633 10.9875C23.3643 10.6774 23.2692 10.378 23.1203 10.1258C22.9733 9.87391 22.77 9.6721 22.5745 9.55991C22.4432 9.48447 22.3198 9.45066 22.2218 9.45066C22.0743 9.45066 21.9553 9.33166 21.9553 9.18416C21.9553 9.03673 22.0743 8.91716 22.2218 8.91716C22.3839 8.91716 22.5427 8.95685 22.6936 9.02347C22.844 9.08916 22.9861 9.18272 23.1183 9.29691C23.3824 9.52516 23.6068 9.83579 23.7479 10.1998C23.841 10.4428 23.8978 10.7093 23.8978 10.9876C23.8983 11.4451 23.742 11.935 23.376 12.3774Z" fill="white"/>
<path d="M10.7793 25.7412L10.7975 25.7574C10.797 25.7569 10.797 25.7569 10.7965 25.7564L10.7793 25.7412Z" fill="white"/>
<path d="M26.7936 4.16087C24.8088 1.84012 21.8238 0.259688 17.999 0.028875C17.6879 0.00975 17.3783 0 17.0716 0C13.8548 0 10.8957 1.0445 8.72634 2.96206C6.55553 4.87469 5.20384 7.67506 5.20872 11.0291C5.20872 11.105 5.20922 11.1809 5.21066 11.2574L5.20728 11.662L2.44609 16.5381C2.29766 16.8012 2.22266 17.0947 2.22266 17.3882C2.22266 17.6331 2.27466 17.8791 2.37991 18.1083C2.60284 18.5948 3.04128 18.9446 3.56059 19.0651L3.55959 19.0695L4.82947 19.4193L5.33116 24.2582L5.33509 24.2577C5.37041 24.9627 5.68491 25.6246 6.21897 26.0891C6.69372 26.5026 7.29972 26.7269 7.92291 26.7269C7.98603 26.7269 8.04828 26.7211 8.11103 26.7167L9.54991 26.8308L9.62197 26.823L9.64497 26.822C9.70028 26.822 9.75178 26.8416 9.79147 26.8774L9.79384 26.8799C9.83947 26.921 9.86641 26.9812 9.86641 27.043V32H23.3014V31.2475C23.3014 31.2475 23.3014 29.209 23.3014 28.3958C23.2999 28.0684 23.3651 27.4213 23.4935 26.7971C23.5572 26.4841 23.636 26.172 23.7252 25.9021C23.8134 25.6327 23.9153 25.4034 24.0005 25.2696C24.8942 23.8292 26.1577 22.6476 27.3148 20.9765C28.4705 19.3069 29.4557 17.1409 29.7257 13.8546C29.76 13.4426 29.7772 13.0305 29.7772 12.6205C29.7772 9.50494 28.7817 6.47962 26.7936 4.16087ZM28.2256 13.729C27.9645 16.7837 27.11 18.6115 26.0753 20.1229C25.0421 21.6329 23.7644 22.8199 22.7243 24.4715C22.543 24.7635 22.4102 25.0869 22.2961 25.4307C22.1266 25.9457 22.0056 26.5071 21.9228 27.0299C21.8405 27.5541 21.7969 28.0293 21.7964 28.3958C21.7964 28.918 21.7964 29.7078 21.7964 30.495H11.3714V27.0431C11.3714 26.5526 11.1627 26.0857 10.7972 25.7581C10.4782 25.4714 10.0667 25.3166 9.64491 25.3166C9.61403 25.3166 9.58416 25.32 9.55378 25.322L8.11641 25.2074L8.04584 25.2152L7.92291 25.2221C7.66128 25.2221 7.40653 25.1275 7.20709 24.9541C6.97684 24.7537 6.84059 24.4656 6.83178 24.1594L6.83134 24.1311L6.22091 18.2423L3.93297 17.6112L3.90553 17.6059C3.83597 17.5921 3.77772 17.5461 3.74778 17.4814L3.72766 17.3883L3.75609 17.2796L6.70928 12.0644L6.71566 11.2496V11.2388C6.71422 11.1683 6.71372 11.0987 6.71372 11.0292C6.71866 8.076 7.86647 5.73806 9.72328 4.0895C11.582 2.44481 14.1777 1.50513 17.0716 1.50513C17.3474 1.50513 17.6257 1.51394 17.906 1.53112L17.9525 0.780062L17.9064 1.53112C21.3716 1.74912 23.9222 3.13169 25.651 5.14081C27.377 7.15144 28.2722 9.82194 28.2722 12.6204C28.2722 12.9883 28.257 13.3581 28.2256 13.729Z" fill="white"/>
</svg>
