<svg width="20" height="20" viewBox="0 0 20 20" fill="none" xmlns="http://www.w3.org/2000/svg">
<path d="M14.2224 1.89306C14.5832 1.74365 14.9698 1.66675 15.3602 1.66675C15.7506 1.66675 16.1372 1.74365 16.4979 1.89306C16.8586 2.04246 17.1863 2.26146 17.4624 2.53752C17.7385 2.81359 17.9575 3.14133 18.1069 3.50204C18.2563 3.86274 18.3332 4.24934 18.3332 4.63976C18.3332 5.03017 18.2563 5.41677 18.1069 5.77748C17.9575 6.13818 17.7385 6.46592 17.4624 6.74199L17.0306 7.17379L12.8262 2.96931L13.2579 2.53752C13.534 2.26146 13.8618 2.04246 14.2224 1.89306Z" fill="#4285F4"/>
<path d="M11.6472 4.14771L3.04485 12.75C2.9423 12.8525 2.86829 12.9801 2.83013 13.12L1.6954 17.2807C1.61671 17.5692 1.69866 17.8778 1.91011 18.0892C2.12157 18.3007 2.43012 18.3826 2.71863 18.304L6.87932 17.1692C7.01924 17.131 7.14677 17.057 7.24931 16.9545L15.8516 8.35221L11.6472 4.14771Z" fill="#4285F4"/>
</svg>
