<svg width="302" height="335" viewBox="0 0 302 335" fill="none" xmlns="http://www.w3.org/2000/svg">
<path opacity="0.3" d="M58.0595 33.9456C34.7158 70.3818 35.9279 126.355 22.4591 171.348C15.2627 195.469 2.5398 217.281 0.319008 243.077C-1.85092 268.24 7.1848 294.919 23.2898 310.913C58.3477 345.73 102.272 314.558 140.407 315.225C169.04 315.735 196.621 336.732 225.059 333.709C233.791 332.658 242.331 329.67 250.327 324.869C269.142 313.794 284.607 294.562 294.217 270.289C300.024 255.574 302.694 236.207 301.846 219.624C300.558 194.349 298.947 167.805 288.047 146.129C273.552 117.322 250.073 112.478 229.077 96.0309C206.403 78.2712 190.934 50.2904 171.93 27.3579C149.934 0.871179 115.037 -7.18802 87.735 6.72316C74.7578 13.3675 65.2474 22.7284 58.0595 33.9456Z" fill="url(#paint0_linear_321_248)"/>
<defs>
<linearGradient id="paint0_linear_321_248" x1="142.541" y1="226.55" x2="233.861" y2="224.318" gradientUnits="userSpaceOnUse">
<stop stop-color="#DBE5F2"/>
<stop offset="1" stop-color="#DBE5F2" stop-opacity="0"/>
</linearGradient>
</defs>
</svg>
